<?xml version="1.0" encoding="UTF-8"?><svg xmlns="http://www.w3.org/2000/svg" xmlns:xlink="http://www.w3.org/1999/xlink" width="816" zoomAndPan="magnify" viewBox="0 0 816 516.000002" height="516.000002" preserveAspectRatio="xMidYMid meet" version="1.0"><defs><clipPath id="clip-0"><path d="M 63.777344 37.199219 L 752.441406 37.199219 L 752.441406 478.09375 L 63.777344 478.09375 Z M 63.777344 37.199219 " clip-rule="nonzero"/></clipPath></defs><g clip-path="url(#clip-0)"><path fill="rgb(24.308777%, 79.998779%, 37.249756%)" d="M 118.871094 37.199219 C 88.582031 37.199219 63.777344 62.007812 63.777344 92.308594 L 63.777344 422.980469 C 63.777344 453.28125 88.582031 478.09375 118.871094 478.09375 L 697.347656 478.09375 C 727.640625 478.09375 752.441406 453.28125 752.441406 422.980469 L 752.441406 92.308594 C 752.441406 62.007812 727.640625 37.199219 697.347656 37.199219 Z M 118.871094 64.753906 L 697.347656 64.753906 C 712.738281 64.753906 724.894531 76.917969 724.894531 92.308594 L 724.894531 422.980469 C 724.894531 438.375 712.738281 450.539062 697.347656 450.539062 L 118.871094 450.539062 C 103.484375 450.539062 91.324219 438.375 91.324219 422.980469 L 91.324219 92.308594 C 91.324219 76.917969 103.484375 64.753906 118.871094 64.753906 Z M 173.964844 147.421875 L 173.964844 367.871094 L 229.058594 367.871094 L 229.058594 221.046875 L 297.921875 312.757812 L 366.789062 221.046875 L 366.789062 367.871094 L 421.882812 367.871094 L 421.882812 147.421875 L 366.789062 147.421875 L 297.921875 239.992188 L 229.058594 147.421875 Z M 545.84375 147.421875 L 545.84375 257.644531 L 476.976562 257.644531 L 573.390625 367.871094 L 669.800781 257.644531 L 600.9375 257.644531 L 600.9375 147.421875 Z M 545.84375 147.421875 " fill-opacity="1" fill-rule="nonzero"/></g></svg>