<svg xmlns="http://www.w3.org/2000/svg" xmlns:xlink="http://www.w3.org/1999/xlink" width="150" height="150" preserveAspectRatio="xMidYMid meet" version="1.0" viewBox="0 0 150 150" zoomAndPan="magnify"><defs><clipPath id="clip-0"><path d="M 25 12 L 150 12 L 150 143.53125 L 25 143.53125 Z M 25 12" clip-rule="nonzero"/></clipPath><clipPath id="clip-1"><path d="M 0 12 L 138 12 L 138 143.53125 L 0 143.53125 Z M 0 12" clip-rule="nonzero"/></clipPath><clipPath id="clip-2"><path d="M 62 6.28125 L 94 6.28125 L 94 69 L 62 69 Z M 62 6.28125" clip-rule="nonzero"/></clipPath><clipPath id="clip-3"><path d="M 0 12 L 138 12 L 138 143.53125 L 0 143.53125 Z M 0 12" clip-rule="nonzero"/></clipPath><clipPath id="clip-4"><path d="M 30 123 L 87 123 L 87 143.53125 L 30 143.53125 Z M 30 123" clip-rule="nonzero"/></clipPath><clipPath id="clip-5"><path d="M 62 6.28125 L 94 6.28125 L 94 69 L 62 69 Z M 62 6.28125" clip-rule="nonzero"/></clipPath></defs><g clip-path="url(#clip-0)"><path fill="#FFFF50" fill-opacity="1" fill-rule="nonzero" d="M 143.71875 15.464844 C 143.667969 14.589844 143.3125 13.863281 142.652344 13.289062 C 141.992188 12.6875 141.21875 12.429688 140.332031 12.519531 L 27.882812 21.878906 C 27.476562 21.910156 27.09375 22.019531 26.730469 22.203125 C 26.367188 22.386719 26.050781 22.632812 25.785156 22.941406 C 25.515625 23.246094 25.316406 23.59375 25.183594 23.980469 C 25.054688 24.363281 25 24.757812 25.023438 25.164062 L 31.269531 140.582031 C 31.292969 140.980469 31.386719 141.359375 31.554688 141.722656 C 31.722656 142.085938 31.953125 142.402344 32.242188 142.679688 C 32.53125 142.953125 32.863281 143.164062 33.234375 143.3125 C 33.609375 143.457031 33.992188 143.53125 34.394531 143.53125 L 34.738281 143.53125 L 147.1875 131.054688 C 147.585938 131.011719 147.960938 130.894531 148.316406 130.707031 C 148.671875 130.515625 148.976562 130.269531 149.238281 129.964844 C 149.496094 129.65625 149.6875 129.3125 149.8125 128.933594 C 149.941406 128.550781 149.992188 128.160156 149.964844 127.761719 Z M 143.71875 15.464844"/></g><g clip-path="url(#clip-1)"><path fill="#3ECC5F" fill-opacity="1" fill-rule="nonzero" d="M 136.898438 32.550781 C 136.390625 31.855469 135.710938 31.441406 134.859375 31.304688 L 22.410156 12.589844 C 22.003906 12.519531 21.601562 12.535156 21.203125 12.625 C 20.800781 12.71875 20.433594 12.882812 20.097656 13.121094 C 19.761719 13.355469 19.484375 13.648438 19.261719 13.996094 C 19.042969 14.339844 18.898438 14.71875 18.824219 15.121094 L 0.0859375 121.179688 C 0.0117188 121.589844 0.0195312 121.996094 0.113281 122.402344 C 0.203125 122.808594 0.367188 123.179688 0.609375 123.519531 C 0.851562 123.859375 1.148438 124.140625 1.5 124.363281 C 1.851562 124.582031 2.234375 124.726562 2.644531 124.796875 L 115.09375 143.511719 C 115.265625 143.535156 115.433594 143.539062 115.605469 143.53125 C 115.972656 143.53125 116.328125 143.46875 116.675781 143.34375 C 117.019531 143.21875 117.332031 143.035156 117.613281 142.800781 C 117.894531 142.566406 118.125 142.289062 118.308594 141.972656 C 118.492188 141.65625 118.617188 141.316406 118.679688 140.953125 L 137.421875 34.898438 C 137.574219 34.042969 137.398438 33.261719 136.898438 32.550781 Z M 136.898438 32.550781"/></g><g clip-path="url(#clip-2)"><path fill="#F44336" fill-opacity="1" fill-rule="nonzero" d="M 78.125 6.28125 C 77.222656 6.28125 76.328125 6.359375 75.4375 6.515625 C 74.550781 6.671875 73.679688 6.90625 72.832031 7.210938 C 71.984375 7.519531 71.167969 7.894531 70.386719 8.34375 C 69.605469 8.789062 68.863281 9.300781 68.171875 9.875 C 67.476562 10.453125 66.835938 11.082031 66.253906 11.769531 C 65.667969 12.453125 65.148438 13.183594 64.6875 13.960938 C 64.230469 14.738281 63.84375 15.546875 63.527344 16.390625 C 63.210938 17.234375 62.964844 18.097656 62.800781 18.984375 L 69.425781 18.433594 C 69.628906 17.933594 69.871094 17.457031 70.15625 16.996094 C 70.4375 16.539062 70.757812 16.109375 71.117188 15.707031 C 71.476562 15.304688 71.863281 14.933594 72.285156 14.597656 C 72.707031 14.265625 73.15625 13.96875 73.628906 13.710938 C 74.101562 13.449219 74.59375 13.234375 75.105469 13.0625 C 75.617188 12.886719 76.136719 12.757812 76.667969 12.675781 C 77.203125 12.59375 77.738281 12.554688 78.277344 12.5625 C 78.816406 12.574219 79.351562 12.628906 79.878906 12.726562 C 80.410156 12.828125 80.925781 12.976562 81.433594 13.164062 C 81.9375 13.355469 82.421875 13.585938 82.886719 13.859375 C 83.351562 14.132812 83.789062 14.445312 84.199219 14.792969 C 84.609375 15.144531 84.984375 15.523438 85.332031 15.941406 C 85.675781 16.355469 85.980469 16.792969 86.25 17.261719 C 86.519531 17.726562 86.746094 18.214844 86.929688 18.722656 C 87.113281 19.226562 87.253906 19.746094 87.347656 20.273438 C 87.441406 20.804688 87.492188 21.339844 87.496094 21.878906 L 87.496094 53.070312 C 87.496094 53.683594 87.433594 54.292969 87.3125 54.898438 C 87.195312 55.5 87.015625 56.085938 86.78125 56.652344 C 86.546875 57.21875 86.257812 57.757812 85.914062 58.269531 C 85.574219 58.78125 85.183594 59.253906 84.75 59.6875 C 84.316406 60.121094 83.839844 60.511719 83.328125 60.851562 C 82.816406 61.191406 82.277344 61.480469 81.710938 61.714844 C 81.140625 61.953125 80.554688 62.128906 79.953125 62.25 C 79.347656 62.367188 78.738281 62.429688 78.125 62.429688 C 77.507812 62.429688 76.898438 62.367188 76.296875 62.25 C 75.691406 62.128906 75.105469 61.953125 74.539062 61.714844 C 73.96875 61.480469 73.429688 61.191406 72.917969 60.851562 C 72.40625 60.511719 71.933594 60.121094 71.496094 59.6875 C 71.0625 59.253906 70.675781 58.78125 70.332031 58.269531 C 69.992188 57.757812 69.703125 57.21875 69.464844 56.652344 C 69.230469 56.085938 69.054688 55.5 68.933594 54.898438 C 68.8125 54.292969 68.753906 53.683594 68.753906 53.070312 L 68.753906 40.59375 C 68.753906 40.179688 68.671875 39.78125 68.515625 39.398438 C 68.355469 39.019531 68.128906 38.679688 67.839844 38.386719 C 67.546875 38.09375 67.207031 37.871094 66.824219 37.710938 C 66.441406 37.554688 66.042969 37.472656 65.628906 37.472656 C 65.214844 37.472656 64.816406 37.554688 64.433594 37.710938 C 64.050781 37.871094 63.714844 38.09375 63.421875 38.386719 C 63.128906 38.679688 62.902344 39.019531 62.742188 39.398438 C 62.585938 39.78125 62.503906 40.179688 62.503906 40.59375 L 62.503906 53.070312 C 62.503906 54.09375 62.605469 55.109375 62.804688 56.113281 C 63.003906 57.117188 63.300781 58.09375 63.695312 59.039062 C 64.085938 59.984375 64.566406 60.882812 65.136719 61.734375 C 65.707031 62.585938 66.355469 63.375 67.078125 64.097656 C 67.804688 64.824219 68.59375 65.46875 69.445312 66.039062 C 70.300781 66.609375 71.199219 67.089844 72.148438 67.480469 C 73.09375 67.871094 74.070312 68.167969 75.078125 68.367188 C 76.082031 68.566406 77.097656 68.667969 78.125 68.667969 C 79.148438 68.667969 80.164062 68.566406 81.171875 68.367188 C 82.175781 68.167969 83.152344 67.871094 84.101562 67.480469 C 85.046875 67.089844 85.949219 66.609375 86.800781 66.039062 C 87.652344 65.46875 88.441406 64.824219 89.167969 64.097656 C 89.890625 63.375 90.539062 62.585938 91.109375 61.734375 C 91.679688 60.882812 92.160156 59.984375 92.550781 59.039062 C 92.945312 58.09375 93.242188 57.117188 93.441406 56.113281 C 93.640625 55.109375 93.742188 54.09375 93.742188 53.070312 L 93.742188 21.878906 C 93.742188 20.855469 93.640625 19.839844 93.441406 18.835938 C 93.242188 17.832031 92.945312 16.855469 92.550781 15.910156 C 92.160156 14.964844 91.679688 14.0625 91.109375 13.210938 C 90.539062 12.363281 89.890625 11.574219 89.167969 10.847656 C 88.441406 10.125 87.652344 9.480469 86.800781 8.910156 C 85.949219 8.339844 85.046875 7.859375 84.101562 7.46875 C 83.152344 7.078125 82.175781 6.78125 81.171875 6.582031 C 80.164062 6.382812 79.148438 6.28125 78.125 6.28125 Z M 78.125 6.28125"/></g><g clip-path="url(#clip-3)"><path fill="none" stroke="#000" stroke-linecap="round" stroke-linejoin="round" stroke-miterlimit="4" stroke-opacity="1" stroke-width="1" d="M 3.499886 2.500228 L 21.499945 5.500057 L 18.499831 22.499717 L 0.499772 19.499887 Z M 3.499886 2.500228" transform="matrix(6.247159, 0, 0, 6.238636, 0.0340922, 0.0426157)"/></g><path fill="none" stroke="#000" stroke-linecap="round" stroke-linejoin="round" stroke-miterlimit="4" stroke-opacity="1" stroke-width="1" d="M 18.759949 21.027039 L 23.500229 20.49983 L 22.499774 2.500228 L 9.832765 3.555897" transform="matrix(6.247159, 0, 0, 6.238636, 0.0340922, 0.0426157)"/><g clip-path="url(#clip-4)"><path fill="none" stroke="#000" stroke-linecap="round" stroke-linejoin="round" stroke-miterlimit="4" stroke-opacity="1" stroke-width="1" d="M 5.381992 20.313867 L 5.500171 22.499717 L 13.299967 21.633141" transform="matrix(6.247159, 0, 0, 6.238636, 0.0340922, 0.0426157)"/></g><g clip-path="url(#clip-5)"><path fill="none" stroke="#000" stroke-linecap="round" stroke-linejoin="round" stroke-miterlimit="4" stroke-opacity="1" stroke-width="1" d="M 10.499944 6.5 L 10.499944 8.499886 C 10.499944 8.631375 10.513075 8.761612 10.538711 8.889971 C 10.564348 9.018955 10.601865 9.144183 10.652513 9.265654 C 10.702536 9.386498 10.763814 9.501708 10.836972 9.611282 C 10.91013 9.72023 10.992668 9.821665 11.085835 9.914333 C 11.178377 10.007002 11.279673 10.090278 11.389098 10.16291 C 11.497897 10.236168 11.613575 10.29753 11.73488 10.347621 C 11.856185 10.397712 11.981242 10.435907 12.110051 10.461578 C 12.238859 10.48725 12.368918 10.499773 12.500228 10.499773 C 12.631538 10.499773 12.761597 10.48725 12.890406 10.461578 C 13.019214 10.435907 13.144271 10.397712 13.265576 10.347621 C 13.386881 10.29753 13.501934 10.236168 13.611358 10.16291 C 13.720158 10.090278 13.821454 10.007002 13.913996 9.914333 C 14.007163 9.821665 14.089701 9.72023 14.162859 9.611282 C 14.236017 9.501708 14.297295 9.386498 14.347943 9.265654 C 14.397966 9.144183 14.436108 9.018955 14.461745 8.889971 C 14.487382 8.761612 14.499887 8.631375 14.499887 8.499886 L 14.499887 3.500171 C 14.499887 3.368682 14.487382 3.238445 14.461745 3.110086 C 14.436108 2.981102 14.397966 2.855874 14.347943 2.734403 C 14.297295 2.613559 14.236017 2.498349 14.162859 2.388775 C 14.089701 2.279827 14.007163 2.178392 13.913996 2.085724 C 13.821454 1.993055 13.720158 1.909779 13.611358 1.837147 C 13.501934 1.763889 13.386881 1.702527 13.265576 1.652436 C 13.144271 1.601719 13.019214 1.564151 12.890406 1.538479 C 12.761597 1.512807 12.631538 1.500284 12.500228 1.500284 C 12.368918 1.500284 12.238859 1.512807 12.110051 1.538479 C 11.981242 1.564151 11.856185 1.601719 11.73488 1.652436 C 11.613575 1.702527 11.497897 1.763889 11.389098 1.837147 C 11.279673 1.909779 11.178377 1.993055 11.085835 2.085724 C 10.992668 2.178392 10.91013 2.279827 10.836972 2.388775 C 10.763814 2.498349 10.702536 2.613559 10.652513 2.734403 C 10.601865 2.855874 10.564348 2.981102 10.538711 3.110086 C 10.513075 3.238445 10.499944 3.368682 10.499944 3.500171" transform="matrix(6.247159, 0, 0, 6.238636, 0.0340922, 0.0426157)"/></g></svg>